<?xml version="1.0" encoding="UTF-8"?>
<svg id="Layer_1" data-name="Layer 1" xmlns="http://www.w3.org/2000/svg" viewBox="0 0 724.66 307.18">
  <defs>
    <style>
      .cls-1 {
        fill: #fff;
        fill-rule: evenodd;
      }

      .cls-1, .cls-2, .cls-3 {
        stroke-width: 0px;
      }

      .cls-3 {
        fill: #ff0032;
      }
    </style>
  </defs>
  <rect class="cls-3" x="83.53" y="44.59" width="218" height="218"/>
  <path class="cls-1" d="m116.53,177.59v-100h40v100c0,6.63,5.37,12,12,12h100v40h-100c-28.72,0-52-23.28-52-52Z"/>
  <path class="cls-1" d="m172.53,141.59v-64h40v56h56v40h-64c-17.67,0-32-14.33-32-32Z"/>
  <path class="cls-2" d="m343.49,218.27c2.23,0,4-.46,5.3-1.38,1.36-.92,2.39-2.39,3.07-4.42.74-2.02,1.24-4.66,1.49-7.92.25-3.25.37-7.18.37-11.78v-26.69h55.8v63.51h-13.02v-53.02h-30.69v16.2c0,6.81-.28,12.55-.84,17.21-.56,4.66-1.58,8.47-3.07,11.41-1.49,2.88-3.57,4.97-6.23,6.26-2.67,1.29-6.11,1.93-10.32,1.93h-3.81v-11.32h1.95Z"/>
  <path class="cls-2" d="m438.08,229.59h-14.04v-63.51h13.02v47.68l38.41-47.68h13.95v63.51h-12.93v-47.68l-38.41,47.68Z"/>
  <path class="cls-2" d="m516.98,166.08v25.68h38.04v-25.68h13.02v63.51h-13.02v-27.34h-38.04v27.34h-13.02v-63.51h13.02Z"/>
  <path class="cls-2" d="m645.86,166.08l-29.85,30.56,31.62,32.95h-16.74l-26.32-27.15h-9.11v27.15h-13.02v-63.51h13.02v25.87h9.58l25.39-25.87h15.44Z"/>
  <path class="cls-2" d="m359.2,89.46v52.74h-11.9v-63.51h20.27l19.62,52.01,19.81-52.01h19.62v63.51h-12.93v-53.02l-20.27,53.02h-14.04l-20.18-52.74Z"/>
  <path class="cls-2" d="m435.35,89.19v-10.49h65.47v10.49h-26.23v53.02h-13.02v-53.02h-26.23Z"/>
  <path class="cls-2" d="m503.26,110.54c0-6.01.77-11.11,2.32-15.28,1.61-4.23,3.94-7.64,6.98-10.22,3.04-2.64,6.76-4.54,11.16-5.71,4.4-1.17,9.46-1.75,15.16-1.75,10.23,0,18.2,1.69,23.9,5.06,5.7,3.31,9.02,8.87,9.95,16.66h-13.11c-.87-4.54-3.01-7.61-6.42-9.2-3.41-1.66-8.18-2.49-14.32-2.49-3.41,0-6.51.31-9.3.92-2.79.61-5.18,1.69-7.16,3.22-1.92,1.47-3.41,3.47-4.46,5.98-1.05,2.52-1.58,5.65-1.58,9.39v6.44c0,3.68.53,6.78,1.58,9.3,1.05,2.52,2.54,4.54,4.46,6.08,1.98,1.53,4.34,2.64,7.07,3.31,2.79.68,5.92,1.01,9.39,1.01,2.98,0,5.61-.15,7.9-.46,2.36-.31,4.4-.86,6.14-1.66,1.74-.86,3.16-1.99,4.28-3.41s1.95-3.22,2.51-5.43h13.11c-1.18,7.49-4.62,12.86-10.32,16.11-5.64,3.25-13.52,4.88-23.62,4.88-5.7,0-10.76-.55-15.16-1.66-4.4-1.17-8.12-3.04-11.16-5.61s-5.36-5.95-6.98-10.13c-1.55-4.17-2.32-9.3-2.32-15.37Z"/>
</svg>